<svg width="40" height="40" viewBox="0 0 40 40" fill="none" xmlns="http://www.w3.org/2000/svg">
<g clip-path="url(#clip0_3_2)">
<path fill-rule="evenodd" clip-rule="evenodd" d="M20.0004 0C8.95352 0 0 8.95447 0 19.9997C0 31.0456 8.95352 40 20.0004 40C31.0457 40 40 31.0456 40 19.9997C40 8.95447 31.0457 0 20.0004 0ZM27.995 28.0389C25.3646 28.0289 23.685 26.8324 22.5418 24.1637L22.2507 23.5145L19.722 17.7335C18.9088 15.75 16.8621 14.4213 14.6288 14.4213C11.5609 14.4213 9.06524 16.924 9.06524 20.0018C9.06524 23.079 11.5609 25.5815 14.6288 25.5815C16.7086 25.5815 18.6003 24.4334 19.5656 22.5842C19.5987 22.521 19.6646 22.4799 19.7391 22.4835C19.8109 22.4864 19.8769 22.531 19.9055 22.5965L20.9268 24.9611C20.9554 25.0266 20.944 25.1006 20.8995 25.156C19.3533 27.0467 17.067 28.1301 14.6288 28.1301C10.1582 28.1301 6.52076 24.483 6.52076 20.0018C6.52076 15.5177 10.1581 11.8706 14.6288 11.8706C18.0137 11.8706 20.7446 13.6967 22.1215 16.883C22.1344 16.9146 23.507 20.1348 24.7132 22.8935C25.426 24.5218 25.9927 25.5161 27.8644 25.5793C29.6501 25.6405 30.9595 24.5946 30.9595 23.14C30.9595 21.846 30.1563 21.5245 28.3434 20.9184C25.2124 19.8853 23.5142 18.8306 23.5142 16.2251C23.5142 13.6779 25.2698 12.0308 27.9848 12.0308C29.769 12.0308 31.0771 12.8165 31.985 14.432C32.0094 14.4774 32.015 14.5298 32.0008 14.5794C31.9865 14.6291 31.952 14.6707 31.9061 14.693L30.2123 15.56C30.1291 15.6038 30.0272 15.5773 29.9727 15.5019C29.3961 14.6923 28.7535 14.3336 27.8901 14.3336C26.7643 14.3336 25.9467 15.1029 25.9467 16.1648C25.9467 17.4739 26.9579 17.7932 28.636 18.3224C28.8555 18.392 29.0849 18.4647 29.3216 18.5416C31.9549 19.4029 33.4795 20.4402 33.4795 23.2069C33.4797 25.9612 31.1217 28.0389 27.995 28.0389Z" fill="white"/>
</g>
<defs>
<clipPath id="clip0_3_2">
<rect width="40" height="40" fill="white"/>
</clipPath>
</defs>
</svg>
