<svg width="40" height="40" viewBox="0 0 40 40" fill="none" xmlns="http://www.w3.org/2000/svg">
<g clip-path="url(#clip0_104_10)">
<path d="M20 22.8125C21.5533 22.8125 22.8125 21.5533 22.8125 20C22.8125 18.4467 21.5533 17.1875 20 17.1875C18.4467 17.1875 17.1875 18.4467 17.1875 20C17.1875 21.5533 18.4467 22.8125 20 22.8125Z" fill="white"/>
<path d="M14.8625 26.7007C14.6196 26.7009 14.3794 26.6496 14.1577 26.5502C13.9361 26.4508 13.738 26.3056 13.5766 26.1241C12.0772 24.4367 11.249 22.2579 11.249 20.0007C11.249 17.7434 12.0772 15.5646 13.5766 13.8772C13.7253 13.7041 13.907 13.5623 14.111 13.4601C14.3151 13.358 14.5375 13.2975 14.7652 13.2822C14.9929 13.2669 15.2214 13.2971 15.4373 13.371C15.6532 13.445 15.8522 13.5612 16.0228 13.7129C16.1933 13.8646 16.3319 14.0487 16.4305 14.2545C16.5291 14.4604 16.5857 14.6838 16.597 14.9117C16.6084 15.1397 16.5742 15.3676 16.4965 15.5822C16.4188 15.7968 16.2992 15.9937 16.1445 16.1616C15.2046 17.2197 14.6855 18.5858 14.6855 20.001C14.6855 21.4163 15.2046 22.7824 16.1445 23.8405C16.3644 24.0881 16.5082 24.394 16.5584 24.7213C16.6086 25.0486 16.5632 25.3835 16.4276 25.6856C16.292 25.9878 16.072 26.2443 15.7941 26.4244C15.5161 26.6044 15.1921 26.7004 14.8609 26.7007H14.8625Z" fill="white"/>
<path d="M25.1376 26.7007C24.8065 26.7004 24.4824 26.6044 24.2045 26.4244C23.9266 26.2443 23.7066 25.9878 23.571 25.6856C23.4354 25.3835 23.39 25.0486 23.4402 24.7213C23.4904 24.394 23.6341 24.0881 23.854 23.8405C24.794 22.7824 25.3131 21.4163 25.3131 20.001C25.3131 18.5858 24.794 17.2197 23.854 16.1616C23.6994 15.9937 23.5798 15.7968 23.5021 15.5822C23.4244 15.3676 23.3902 15.1397 23.4015 14.9117C23.4129 14.6838 23.4695 14.4604 23.5681 14.2545C23.6667 14.0487 23.8053 13.8646 23.9758 13.7129C24.1463 13.5612 24.3453 13.445 24.5613 13.371C24.7772 13.2971 25.0056 13.2669 25.2334 13.2822C25.4611 13.2975 25.6835 13.358 25.8875 13.4601C26.0916 13.5623 26.2733 13.7041 26.422 13.8772C27.9214 15.5646 28.7495 17.7434 28.7495 20.0007C28.7495 22.2579 27.9214 24.4367 26.422 26.1241C26.2608 26.3054 26.0629 26.4505 25.8416 26.5499C25.6202 26.6493 25.3803 26.7007 25.1376 26.7007Z" fill="white"/>
<path d="M10.882 30.6811C10.6462 30.6813 10.413 30.6329 10.1968 30.5388C9.98064 30.4447 9.78623 30.3069 9.62575 30.1342C7.05566 27.3847 5.62598 23.7615 5.62598 19.9979C5.62598 16.2342 7.05566 12.6111 9.62575 9.86155C9.77958 9.69529 9.96476 9.56107 10.1706 9.46662C10.3765 9.37216 10.599 9.31934 10.8254 9.31118C11.0518 9.30301 11.2775 9.33967 11.4897 9.41905C11.7018 9.49843 11.8962 9.61896 12.0616 9.77371C12.227 9.92846 12.3602 10.1144 12.4535 10.3208C12.5468 10.5272 12.5984 10.75 12.6053 10.9764C12.6122 11.2028 12.5743 11.4283 12.4937 11.64C12.4132 11.8517 12.2916 12.0454 12.1359 12.21C10.1614 14.3227 9.06304 17.1065 9.06304 19.9983C9.06304 22.89 10.1614 25.6738 12.1359 27.7865C12.364 28.0313 12.5158 28.3373 12.5725 28.667C12.6292 28.9967 12.5885 29.3359 12.4552 29.6428C12.322 29.9497 12.1021 30.211 11.8225 30.3948C11.5429 30.5785 11.2158 30.6767 10.8812 30.6772L10.882 30.6811Z" fill="white"/>
<path d="M29.1184 30.6811C28.7839 30.6806 28.4567 30.5824 28.1771 30.3987C27.8975 30.2149 27.6776 29.9536 27.5444 29.6467C27.4112 29.3398 27.3704 29.0007 27.4272 28.6709C27.4839 28.3412 27.6356 28.0352 27.8637 27.7905C29.8383 25.6777 30.9366 22.8939 30.9366 20.0022C30.9366 17.1104 29.8383 14.3266 27.8637 12.2139C27.7081 12.0493 27.5865 11.8557 27.5059 11.6439C27.4254 11.4322 27.3874 11.2067 27.3944 10.9803C27.4013 10.7539 27.4529 10.5311 27.5462 10.3247C27.6395 10.1183 27.7727 9.93237 27.9381 9.77762C28.1035 9.62287 28.2978 9.50234 28.51 9.42296C28.7221 9.34358 28.9479 9.30692 29.1742 9.31508C29.4006 9.32324 29.6231 9.37607 29.829 9.47052C30.0349 9.56498 30.2201 9.69919 30.3739 9.86545C32.944 12.615 34.3737 16.2381 34.3737 20.0018C34.3737 23.7654 32.944 27.3886 30.3739 30.1381C30.2132 30.31 30.0187 30.447 29.8027 30.5404C29.5867 30.6338 29.3538 30.6817 29.1184 30.6811Z" fill="white"/>
<path d="M33.5152 34.219C33.1835 34.2189 32.8588 34.1228 32.5804 33.9423C32.302 33.7617 32.0819 33.5045 31.9465 33.2016C31.8111 32.8987 31.7663 32.563 31.8174 32.2352C31.8686 31.9074 32.0135 31.6014 32.2348 31.3541C35.0221 28.229 36.5624 24.1878 36.5624 20.0002C36.5624 15.8127 35.0221 11.7715 32.2348 8.64632C31.9405 8.30529 31.7919 7.86237 31.8208 7.41286C31.8498 6.96335 32.0541 6.54318 32.3897 6.24276C32.7254 5.94235 33.1655 5.7857 33.6155 5.80653C34.0655 5.82736 34.4893 6.024 34.7957 6.35413C38.147 10.1096 39.9991 14.9669 39.9991 20.0002C39.9991 25.0335 38.147 29.8909 34.7957 33.6463C34.6345 33.8264 34.4372 33.9705 34.2166 34.0692C33.9959 34.1679 33.7569 34.2189 33.5152 34.219Z" fill="white"/>
<path d="M6.48448 34.219C6.24247 34.2194 6.0031 34.1686 5.78213 34.0699C5.56116 33.9712 5.3636 33.8269 5.20244 33.6463C1.85118 29.8909 -0.000976562 25.0335 -0.000976562 20.0002C-0.000976563 14.9669 1.85118 10.1096 5.20244 6.35413C5.50889 6.024 5.9327 5.82736 6.38266 5.80653C6.83262 5.7857 7.27278 5.94235 7.60842 6.24276C7.94406 6.54318 8.14834 6.96335 8.17733 7.41286C8.20631 7.86237 8.05766 8.30529 7.76338 8.64632C4.9761 11.7715 3.43576 15.8127 3.43576 20.0002C3.43576 24.1878 4.9761 28.229 7.76338 31.3541C7.98454 31.6013 8.12946 31.9072 8.18067 32.2348C8.23188 32.5625 8.1872 32.898 8.052 33.2009C7.9168 33.5037 7.69687 33.761 7.41873 33.9416C7.1406 34.1223 6.81613 34.2186 6.48448 34.219Z" fill="white"/>
</g>
<defs>
<clipPath id="clip0_104_10">
<rect width="40" height="40" fill="white"/>
</clipPath>
</defs>
</svg>
